# This file uses centimeters as units for non-parametric coordinates.

v 0.951057 0.309017 0.000000
v 0.587786 0.809017 0.000000
v 0.000000 1.000000 0.000000
v -0.587785 0.809017 0.000000
v -0.951057 0.309017 0.000000
v -0.951057 -0.309017 0.000000
v -0.587785 -0.809017 0.000000
v -0.000000 -1.000000 0.000000
v 0.587785 -0.809017 0.000000
v 0.951057 -0.309017 0.000000
vt 0.023704 0.352816
vt 0.976296 0.352816
vt 0.023704 0.647184
vt 0.976296 0.647184
vt 0.794367 0.885332
vt 0.500000 0.976296
vt 0.205633 0.885332
vt 0.205633 0.114668
vt 0.500000 0.023704
vt 0.794367 0.114668
vn 0.000000 0.000000 1.000000
vn 0.000000 0.000000 1.000000
vn 0.000000 0.000000 1.000000
vn 0.000000 0.000000 1.000000
vn 0.000000 0.000000 1.000000
vn 0.000000 0.000000 1.000000
vn 0.000000 0.000000 1.000000
vn 0.000000 0.000000 1.000000
vn 0.000000 0.000000 1.000000
vn 0.000000 0.000000 1.000000
f 6/1/1 10/2/2 5/3/3
f 10/2/2 1/4/4 2/5/5
f 10/2/2 2/5/5 3/6/6
f 10/2/2 3/6/6 4/7/7
f 10/2/2 4/7/7 5/3/3
f 7/8/8 10/2/2 6/1/1
f 8/9/9 10/2/2 7/8/8
f 9/10/10 10/2/2 8/9/9
