# This file uses centimeters as units for non-parametric coordinates.

v 0.213244 0.000000 -0.748768
v -1.352837 -0.000000 1.109112
v 0.241000 -0.000000 1.427467
v -1.505803 0.000000 -0.748768
v 1.397961 -0.000000 1.241652
v 1.379361 0.000000 -0.897811
v 0.213244 0.000000 -1.366710
v 1.087555 0.000000 -1.427467
v -0.153896 0.000000 -1.271297
v -0.882594 0.000000 -1.182659
v -1.299125 0.000000 -1.230322
v -1.505803 0.000000 -1.042366
v 1.478381 -0.000000 -0.509772
v 1.505803 -0.000000 0.579925
v -0.350759 -0.000000 1.397535
v -1.481719 -0.000000 0.667043
vt 0.331313 0.517776
vt 0.401045 0.503690
vt 0.400000 0.600000
vt 0.323811 0.599966
vt 0.452072 0.511908
vt 0.451292 0.605815
vt 0.400119 0.626647
vt 0.438527 0.627495
vt 0.383581 0.621420
vt 0.351724 0.617199
vt 0.333598 0.619542
vt 0.324272 0.612018
vt 0.455337 0.588725
vt 0.456617 0.540904
vt 0.374827 0.505335
vt 0.325196 0.537366
vn 0.000000 1.000000 0.000000
vn 0.000000 1.000000 0.000000
vn 0.000000 1.000000 0.000000
vn 0.000000 1.000000 0.000000
vn 0.000000 1.000000 0.000000
vn 0.000000 1.000000 0.000000
vn -0.000000 1.000000 0.000000
vn -0.000000 1.000000 0.000000
vn -0.000000 1.000000 0.000000
vn -0.000000 1.000000 0.000000
vn 0.000000 1.000000 0.000000
vn 0.000000 1.000000 0.000000
vn 0.000000 1.000000 0.000000
vn 0.000000 1.000000 0.000000
vn 0.000000 1.000000 0.000000
vn 0.000000 1.000000 0.000000
vn 0.000000 1.000000 0.000000
vn 0.000000 1.000000 0.000000
vn 0.000000 1.000000 0.000000
vn 0.000000 1.000000 0.000000
vn 0.000000 1.000000 0.000000
vn 0.000000 1.000000 0.000000
vn 0.000000 1.000000 0.000000
vn 0.000000 1.000000 0.000000
vn -0.000000 1.000000 0.000000
vn -0.000000 1.000000 0.000000
vn -0.000000 1.000000 0.000000
vn -0.000000 1.000000 0.000000
vn -0.000000 1.000000 0.000000
f 16/16/1 1/3/2 4/4/3
f 1/3/4 13/13/5 6/6/6
f 4/4/7 10/10/8 11/11/9 12/12/10
f 1/3/4 6/6/6 8/8/11 7/7/12
f 9/9/13 1/3/4 7/7/12
f 4/4/3 1/3/2 9/9/14 10/10/15
f 1/3/16 5/5/17 14/14/18
f 1/3/19 14/14/20 13/13/21
f 3/2/22 5/5/23 1/3/24
f 15/15/25 3/2/22 1/3/24
f 2/1/26 15/15/27 1/3/28 16/16/29
