# This file uses centimeters as units for non-parametric coordinates.

v -8.772445 -0.000000 3.741487
v -8.515437 -0.000000 4.082997
v -6.574751 -0.000000 4.277107
v -3.506188 -0.000000 4.337153
v -2.075819 -0.000000 4.346991
v -0.768139 -0.000000 3.666842
v -8.963061 -0.000000 3.066041
v -7.597370 -0.000000 3.798685
v -5.698028 -0.000000 3.798685
v -3.798685 -0.000000 3.798685
v -1.899342 -0.000000 3.798685
v -0.724115 0.000000 3.092294
v -8.908559 -0.000000 1.899342
v -7.597370 -0.000000 1.899342
v -5.698028 -0.000000 1.899342
v -3.798685 -0.000000 1.899342
v -1.899342 -0.000000 1.899342
v -0.750267 -0.000000 1.747016
v -8.895900 -0.000000 0.765702
v -8.709893 0.000000 0.532360
v -5.610291 0.000000 0.382193
v -4.450892 0.000000 0.458322
v -1.925968 -0.000000 0.451332
v -1.459797 0.000000 0.458974
v -7.972487 -0.000000 4.251987
v -8.400422 0.000000 0.368888
v -1.015842 0.000000 0.621453
v -0.727546 0.000000 0.809989
v -1.033642 -0.000000 4.130933
v -1.408002 -0.000000 4.292535
v -3.995491 -0.000000 4.230038
v -5.241171 -0.000000 4.174227
vt 0.038592 0.302651
vt 0.052095 0.284924
vt 0.154044 0.274772
vt 0.315355 0.271551
vt 0.389609 0.273027
vt 0.456530 0.309132
vt 0.028474 0.338451
vt 0.100000 0.300000
vt 0.200000 0.300000
vt 0.300000 0.300000
vt 0.400000 0.300000
vt 0.461739 0.336976
vt 0.031061 0.400000
vt 0.100000 0.400000
vt 0.200000 0.400000
vt 0.300000 0.400000
vt 0.400000 0.400000
vt 0.460421 0.407544
vt 0.032691 0.459243
vt 0.042062 0.471620
vt 0.204796 0.479407
vt 0.265808 0.475576
vt 0.398622 0.476027
vt 0.423462 0.475287
vt 0.080724 0.276164
vt 0.058452 0.480051
vt 0.446484 0.466411
vt 0.461586 0.456018
vt 0.441819 0.286399
vt 0.422431 0.277837
vt 0.289513 0.277746
vt 0.224084 0.280958
vn -0.000000 1.000000 0.000000
vn -0.000000 1.000000 0.000000
vn -0.000000 1.000000 0.000000
vn -0.000000 1.000000 0.000000
vn -0.000000 1.000000 0.000000
vn -0.000000 1.000000 0.000000
vn 0.000000 1.000000 0.000000
vn -0.000000 1.000000 0.000000
vn -0.000000 1.000000 0.000000
vn -0.000000 1.000000 0.000000
vn 0.000000 1.000000 0.000000
vn 0.000000 1.000000 0.000000
vn 0.000000 1.000000 0.000000
vn 0.000000 1.000000 0.000000
vn 0.000000 1.000000 -0.000000
vn -0.000000 1.000000 0.000000
vn -0.000000 1.000000 0.000000
vn -0.000000 1.000000 0.000000
vn 0.000000 1.000000 0.000000
vn -0.000000 1.000000 -0.000000
vn 0.000000 1.000000 0.000000
vn -0.000000 1.000000 0.000000
vn -0.000000 1.000000 0.000000
vn 0.000000 1.000000 0.000000
vn 0.000000 1.000000 -0.000000
vn -0.000000 1.000000 0.000000
vn -0.000000 1.000000 -0.000000
vn -0.000000 1.000000 0.000000
vn -0.000000 1.000000 0.000000
vn -0.000000 1.000000 0.000000
vn -0.000000 1.000000 0.000000
vn 0.000000 1.000000 0.000000
vn 0.000000 1.000000 0.000000
vn 0.000000 1.000000 0.000000
vn 0.000000 1.000000 0.000000
vn 0.000000 1.000000 0.000000
vn 0.000000 1.000000 0.000000
vn 0.000000 1.000000 0.000000
vn 0.000000 1.000000 0.000000
vn -0.000000 1.000000 0.000000
vn -0.000000 1.000000 0.000000
vn 0.000000 1.000000 0.000000
f 1/1/1 2/2/2 8/8/3 7/7/4
f 25/25/5 3/3/6 9/9/7 8/8/3
f 31/31/8 4/4/9 10/10/10
f 4/4/9 5/5/11 11/11/12 10/10/10
f 29/29/13 6/6/14 12/12/15 11/11/12
f 7/7/4 8/8/3 14/14/16 13/13/17
f 8/8/3 9/9/7 15/15/18 14/14/16
f 9/9/7 10/10/10 16/16/19 15/15/18
f 10/10/10 11/11/12 17/17/20 16/16/19
f 11/11/12 12/12/15 18/18/21 17/17/20
f 13/13/17 14/14/16 20/20/22 19/19/23
f 14/14/16 26/26/24 20/20/22
f 15/15/18 16/16/19 22/22/25 21/21/26
f 16/16/19 17/17/20 23/23/27 22/22/25
f 17/17/20 27/27/28 24/24/29 23/23/27
f 2/2/2 25/25/30 8/8/3
f 14/14/16 15/15/18 21/21/26 26/26/31
f 17/17/32 28/28/33 27/27/34
f 17/17/20 18/18/21 28/28/35
f 30/30/36 29/29/37 11/11/38
f 5/5/11 30/30/39 11/11/12
f 32/32/40 31/31/41 10/10/10 9/9/7
f 3/3/6 32/32/42 9/9/7
