# This file uses centimeters as units for non-parametric coordinates.

v -3.722569 -0.000000 3.702474
v 3.722569 -0.000000 3.702474
v -3.722569 0.000000 -2.516842
v -2.496748 0.000000 -2.516842
v 3.569937 0.000000 -3.654050
v -3.309545 0.000000 -3.702474
v -2.496748 0.000000 -3.578320
vt 0.021457 0.000103
vt 0.500000 0.000000
vt 0.100000 0.400000
vt 0.021398 0.399960
vt 0.490026 0.473069
vt 0.100033 0.468314
vt 0.047987 0.476306
vn -0.000000 1.000000 0.000000
vn -0.000000 1.000000 0.000000
vn -0.000000 1.000000 0.000000
vn -0.000000 1.000000 0.000000
vn -0.000000 1.000000 0.000000
vn -0.000000 1.000000 0.000000
vn -0.000000 1.000000 0.000000
f 4/3/1 3/4/2 1/1/3
f 2/2/4 5/5/5 4/3/1 1/1/3
f 3/4/2 4/3/1 7/6/6 6/7/7
f 5/5/5 7/6/6 4/3/1
