# This file uses centimeters as units for non-parametric coordinates.

v 3.586958 -0.000000 6.719590
v 3.586959 -0.000000 3.609932
v 3.586958 0.000000 -1.484345
v 3.586958 0.000000 -6.719590
v -2.191844 -0.000000 6.719590
v -2.191844 -0.000000 3.609932
v -3.586959 -0.000000 2.770708
v -1.706267 0.000000 -1.238385
v -3.385726 0.000000 -0.636934
v -1.779174 0.000000 -6.719590
vt 0.600000 0.000000
vt 0.971265 0.000956
vt 0.600000 0.200000
vt 0.971445 0.200175
vt 0.511088 0.254018
vt 0.631263 0.511785
vt 0.523640 0.472968
vt 0.971451 0.527616
vt 0.626704 0.864111
vt 0.971373 0.863943
vn 0.000000 1.000000 0.000000
vn 0.000000 1.000000 0.000000
vn 0.000000 1.000000 0.000000
vn 0.000000 1.000000 0.000000
vn 0.000000 1.000000 0.000000
vn -0.000000 1.000000 0.000000
vn -0.000000 1.000000 0.000000
vn 0.000000 1.000000 0.000000
vn 0.000000 1.000000 0.000000
vn 0.000000 1.000000 0.000000
f 1/2/1 2/4/2 6/3/3 5/1/4
f 8/6/5 9/7/6 7/5/7 6/3/3
f 2/4/2 3/8/8 8/6/5 6/3/3
f 4/10/9 10/9/10 8/6/5 3/8/8
