# This file uses centimeters as units for non-parametric coordinates.

v -3.748157 -0.000000 2.085568
v -3.748157 0.000000 -4.133748
v 0.916330 0.000000 -4.133748
v 4.025989 0.000000 -4.133748
v -4.025989 -0.000000 4.133748
v 1.244565 -0.000000 4.058019
v 0.916330 -0.000000 2.085568
v 4.025989 -0.000000 2.085568
vt 0.082333 0.468717
vt 0.100000 0.600000
vt 0.421084 0.473174
vt 0.400000 0.600000
vt 0.600000 0.600000
vt 0.100000 1.000000
vt 0.400000 1.000000
vt 0.600000 1.000000
vn 0.000000 1.000000 0.000000
vn 0.000000 1.000000 0.000000
vn 0.000000 1.000000 0.000000
vn 0.000000 1.000000 0.000000
vn 0.000000 1.000000 0.000000
vn 0.000000 1.000000 0.000000
vn 0.000000 1.000000 0.000000
vn 0.000000 1.000000 0.000000
f 1/2/1 5/1/2 6/3/3 7/4/4
f 3/7/5 2/6/6 1/2/1 7/4/4
f 8/5/7 4/8/8 3/7/5 7/4/4
